<svg xmlns="http://www.w3.org/2000/svg" viewBox="0 0 96 96" role="img" aria-labelledby="title desc">
  <title id="title">GHALBIT MARITRONIX Icon</title>
  <desc id="desc">Shield and anchor icon with maritime network accents.</desc>
  <defs>
    <linearGradient id="iconGlow" x1="0" x2="1" y1="0" y2="1">
      <stop offset="0" stop-color="#D9FBFF"/>
      <stop offset="0.45" stop-color="#00D9FF"/>
      <stop offset="1" stop-color="#2B6DFF"/>
    </linearGradient>
  </defs>
  <path d="M48 6l30 11v29c0 21-12 37-30 48C30 83 18 67 18 46V17L48 6z" fill="url(#iconGlow)"/>
  <path d="M48 15l22 8v22c0 16-9 28-22 38-13-10-22-22-22-38V23l22-8z" fill="#041B2D" opacity="0.92"/>
  <path d="M48 27c4 0 7 3 7 7v4h4c2 0 4 2 3 4l-5 10v15h-5V52h-4v15h-5V52h-4l-5-10c-1-2 1-4 3-4h4v-4c0-4 3-7 7-7z" fill="url(#iconGlow)"/>
  <path d="M31 73c7-2 12-2 17 0 4 2 9 2 17 0" fill="none" stroke="#00D9FF" stroke-width="3.2" stroke-linecap="round"/>
  <circle cx="31" cy="36" r="2.4" fill="#00D9FF"/>
  <circle cx="65" cy="39" r="2.4" fill="#00D9FF"/>
  <path d="M31 36l17 8 17-5" stroke="#29B6F6" stroke-width="2" fill="none" opacity="0.82"/>
</svg>
