<svg xmlns="http://www.w3.org/2000/svg" viewBox="0 0 64 64">
  <defs>
    <linearGradient id="favGlow" x1="0" x2="1" y1="0" y2="1">
      <stop offset="0" stop-color="#D9FBFF"/>
      <stop offset="0.45" stop-color="#00D9FF"/>
      <stop offset="1" stop-color="#2B6DFF"/>
    </linearGradient>
  </defs>
  <rect width="64" height="64" rx="16" fill="#02111D"/>
  <path d="M32 6l19 7v18c0 14-8 24-19 31C21 55 13 45 13 31V13l19-7z" fill="url(#favGlow)"/>
  <path d="M32 14l13 5v12c0 9-5 17-13 24-8-7-13-15-13-24V19l13-5z" fill="#041B2D" opacity=".94"/>
  <path d="M32 22c3 0 5 2 5 5v3h3c2 0 3 2 2 3l-4 8v11h-4V41h-4v11h-4V41h-4l-4-8c-1-1 0-3 2-3h3v-3c0-3 2-5 5-5z" fill="url(#favGlow)"/>
  <path d="M21 49c5-2 9-2 11 0 4 1 8 1 11 0" fill="none" stroke="#00D9FF" stroke-width="2.4" stroke-linecap="round"/>
</svg>
